SplineFontDB: 3.2
FontName: BlockBars
FullName: Block Bars
FamilyName: Block Bars
Weight: Regular
Copyright: Copyright (c) 2020, Konrad K
UComments: "2020-11-17: Created with FontForge (http://fontforge.org)"
Version: 001.000
ItalicAngle: 0
UnderlinePosition: -100
UnderlineWidth: 50
Ascent: 800
Descent: 200
InvalidEm: 0
LayerCount: 2
Layer: 0 0 "Warstwa t+AUIA-a" 1
Layer: 1 0 "Plan pierwszy" 0
XUID: [1021 1021 -1249086466 7174026]
StyleMap: 0x0000
FSType: 0
OS2Version: 0
OS2_WeightWidthSlopeOnly: 0
OS2_UseTypoMetrics: 1
CreationTime: 1605617769
ModificationTime: 1605621124
OS2TypoAscent: 0
OS2TypoAOffset: 1
OS2TypoDescent: 0
OS2TypoDOffset: 1
OS2TypoLinegap: 90
OS2WinAscent: 0
OS2WinAOffset: 1
OS2WinDescent: 0
OS2WinDOffset: 1
HheadAscent: 0
HheadAOffset: 1
HheadDescent: 0
HheadDOffset: 1
OS2Vendor: 'PfEd'
MarkAttachClasses: 1
DEI: 91125
Encoding: ISO8859-1
UnicodeInterp: none
NameList: AGL For New Fonts
DisplaySize: -48
AntiAlias: 1
FitToEm: 0
WinInfo: 0 28 10
BeginPrivate: 0
EndPrivate
BeginChars: 256 45

StartChar: one
Encoding: 49 49 1
Width: 400
Flags: MW
LayerCount: 2
Fore
SplineSet
0 -100 m 1
 400 -100 l 5
 400 -200 l 1
 0 -200 l 1
 0 -100 l 1
EndSplineSet
EndChar

StartChar: two
Encoding: 50 50 2
Width: 400
Flags: MW
LayerCount: 2
Fore
SplineSet
0 0 m 1
 400 0 l 5
 400 -200 l 1
 0 -200 l 1
 0 0 l 1
EndSplineSet
EndChar

StartChar: three
Encoding: 51 51 3
Width: 400
Flags: MW
LayerCount: 2
Fore
SplineSet
0 100 m 1
 400 100 l 5
 400 -200 l 1
 0 -200 l 1
 0 100 l 1
EndSplineSet
EndChar

StartChar: four
Encoding: 52 52 4
Width: 400
Flags: MW
LayerCount: 2
Fore
SplineSet
0 200 m 1
 400 200 l 5
 400 -200 l 5
 0 -200 l 1
 0 200 l 1
EndSplineSet
EndChar

StartChar: five
Encoding: 53 53 5
Width: 400
Flags: MW
LayerCount: 2
Fore
SplineSet
0 300 m 1
 400 300 l 5
 400 -200 l 1
 0 -200 l 1
 0 300 l 1
EndSplineSet
EndChar

StartChar: six
Encoding: 54 54 6
Width: 400
Flags: MW
LayerCount: 2
Fore
SplineSet
0 400 m 1
 400 400 l 5
 400 -200 l 1
 0 -200 l 1
 0 400 l 1
EndSplineSet
EndChar

StartChar: seven
Encoding: 55 55 7
Width: 400
Flags: MW
LayerCount: 2
Fore
SplineSet
0 500 m 1
 400 500 l 5
 400 -200 l 5
 0 -200 l 1
 0 500 l 1
EndSplineSet
EndChar

StartChar: eight
Encoding: 56 56 8
Width: 400
Flags: MW
LayerCount: 2
Fore
SplineSet
0 600 m 1
 400 600 l 5
 400 -200 l 1
 0 -200 l 1
 0 600 l 1
EndSplineSet
EndChar

StartChar: nine
Encoding: 57 57 9
Width: 400
Flags: MW
LayerCount: 2
Fore
SplineSet
0 700 m 5
 400 700 l 1
 400 -200 l 1
 0 -200 l 1
 0 700 l 5
EndSplineSet
EndChar

StartChar: colon
Encoding: 58 58 11
Width: 400
Flags: MW
LayerCount: 2
Fore
SplineSet
0 800 m 1
 400 800 l 1
 400 -200 l 5
 0 -200 l 1
 0 800 l 1
EndSplineSet
EndChar

StartChar: b
Encoding: 98 98 13
Width: 500
Flags: HMW
LayerCount: 2
Fore
SplineSet
0 -100 m 1
 500 -100 l 5
 500 -200 l 1
 0 -200 l 1
 0 -100 l 1
EndSplineSet
EndChar

StartChar: c
Encoding: 99 99 14
Width: 500
Flags: MW
LayerCount: 2
Fore
SplineSet
0 0 m 1
 500 0 l 5
 500 -200 l 1
 0 -200 l 1
 0 0 l 1
EndSplineSet
EndChar

StartChar: d
Encoding: 100 100 15
Width: 500
Flags: MW
LayerCount: 2
Fore
SplineSet
0 100 m 1
 500 100 l 5
 500 -200 l 1
 0 -200 l 1
 0 100 l 1
EndSplineSet
EndChar

StartChar: e
Encoding: 101 101 16
Width: 500
Flags: MW
LayerCount: 2
Fore
SplineSet
0 200 m 1
 500 200 l 5
 500 -200 l 5
 0 -200 l 1
 0 200 l 1
EndSplineSet
EndChar

StartChar: f
Encoding: 102 102 17
Width: 500
Flags: MW
LayerCount: 2
Fore
SplineSet
0 300 m 1
 500 300 l 5
 500 -200 l 1
 0 -200 l 1
 0 300 l 1
EndSplineSet
EndChar

StartChar: g
Encoding: 103 103 18
Width: 500
Flags: MW
LayerCount: 2
Fore
SplineSet
0 400 m 1
 500 400 l 5
 500 -200 l 1
 0 -200 l 1
 0 400 l 1
EndSplineSet
EndChar

StartChar: h
Encoding: 104 104 19
Width: 500
Flags: MW
LayerCount: 2
Fore
SplineSet
0 500 m 1
 500 500 l 5
 500 -200 l 5
 0 -200 l 1
 0 500 l 1
EndSplineSet
EndChar

StartChar: i
Encoding: 105 105 20
Width: 500
Flags: MW
LayerCount: 2
Fore
SplineSet
0 600 m 1
 500 600 l 5
 500 -200 l 1
 0 -200 l 1
 0 600 l 1
EndSplineSet
EndChar

StartChar: j
Encoding: 106 106 21
Width: 500
Flags: MW
LayerCount: 2
Fore
SplineSet
0 700 m 5
 500 700 l 1
 500 -200 l 1
 0 -200 l 1
 0 700 l 5
EndSplineSet
EndChar

StartChar: k
Encoding: 107 107 22
Width: 500
Flags: MW
LayerCount: 2
Fore
SplineSet
0 800 m 1
 500 800 l 1
 500 -200 l 5
 0 -200 l 1
 0 800 l 1
EndSplineSet
EndChar

StartChar: slash
Encoding: 47 47 24
Width: 200
Flags: HMW
LayerCount: 2
Fore
SplineSet
0 800 m 1
 200 800 l 1
 200 -200 l 5
 0 -200 l 1
 0 800 l 1
EndSplineSet
EndChar

StartChar: B
Encoding: 66 66 25
Width: 600
Flags: HMW
LayerCount: 2
Fore
SplineSet
0 -100 m 1
 600 -100 l 5
 600 -200 l 1
 0 -200 l 1
 0 -100 l 1
EndSplineSet
EndChar

StartChar: C
Encoding: 67 67 26
Width: 600
Flags: HMW
LayerCount: 2
Fore
SplineSet
0 0 m 1
 600 0 l 5
 600 -200 l 1
 0 -200 l 1
 0 0 l 1
EndSplineSet
EndChar

StartChar: D
Encoding: 68 68 27
Width: 600
Flags: HMW
LayerCount: 2
Fore
SplineSet
0 100 m 1
 600 100 l 5
 600 -200 l 1
 0 -200 l 1
 0 100 l 1
EndSplineSet
EndChar

StartChar: E
Encoding: 69 69 28
Width: 600
Flags: HMW
LayerCount: 2
Fore
SplineSet
0 200 m 1
 600 200 l 5
 600 -200 l 5
 0 -200 l 1
 0 200 l 1
EndSplineSet
EndChar

StartChar: F
Encoding: 70 70 29
Width: 600
Flags: HMW
LayerCount: 2
Fore
SplineSet
0 300 m 1
 600 300 l 5
 600 -200 l 1
 0 -200 l 1
 0 300 l 1
EndSplineSet
EndChar

StartChar: G
Encoding: 71 71 30
Width: 600
Flags: HMW
LayerCount: 2
Fore
SplineSet
0 400 m 1
 600 400 l 5
 600 -200 l 1
 0 -200 l 1
 0 400 l 1
EndSplineSet
EndChar

StartChar: H
Encoding: 72 72 31
Width: 600
Flags: HMW
LayerCount: 2
Fore
SplineSet
0 500 m 1
 600 500 l 5
 600 -200 l 5
 0 -200 l 1
 0 500 l 1
EndSplineSet
EndChar

StartChar: I
Encoding: 73 73 32
Width: 600
Flags: HMW
LayerCount: 2
Fore
SplineSet
0 600 m 1
 600 600 l 5
 600 -200 l 1
 0 -200 l 1
 0 600 l 1
EndSplineSet
EndChar

StartChar: J
Encoding: 74 74 33
Width: 600
Flags: HMW
LayerCount: 2
Fore
SplineSet
0 700 m 5
 600 700 l 1
 600 -200 l 1
 0 -200 l 1
 0 700 l 5
EndSplineSet
EndChar

StartChar: K
Encoding: 75 75 34
Width: 600
Flags: HMW
LayerCount: 2
Fore
SplineSet
0 800 m 1
 600 800 l 1
 600 -200 l 5
 0 -200 l 1
 0 800 l 1
EndSplineSet
EndChar

StartChar: ampersand
Encoding: 38 38 36
Width: 200
Flags: HMW
LayerCount: 2
Fore
SplineSet
0 -100 m 1
 200 -100 l 5
 200 -200 l 1
 0 -200 l 1
 0 -100 l 1
EndSplineSet
EndChar

StartChar: quotesingle
Encoding: 39 39 37
Width: 200
Flags: HMW
LayerCount: 2
Fore
SplineSet
0 0 m 1
 200 0 l 5
 200 -200 l 1
 0 -200 l 1
 0 0 l 1
EndSplineSet
EndChar

StartChar: parenleft
Encoding: 40 40 38
Width: 200
Flags: HMW
LayerCount: 2
Fore
SplineSet
0 100 m 1
 200 100 l 5
 200 -200 l 1
 0 -200 l 1
 0 100 l 1
EndSplineSet
EndChar

StartChar: parenright
Encoding: 41 41 39
Width: 200
Flags: HMW
LayerCount: 2
Fore
SplineSet
0 200 m 1
 200 200 l 5
 200 -200 l 5
 0 -200 l 1
 0 200 l 1
EndSplineSet
EndChar

StartChar: asterisk
Encoding: 42 42 40
Width: 200
Flags: HMW
LayerCount: 2
Fore
SplineSet
0 300 m 1
 200 300 l 5
 200 -200 l 1
 0 -200 l 1
 0 300 l 1
EndSplineSet
EndChar

StartChar: plus
Encoding: 43 43 41
Width: 200
Flags: HMW
LayerCount: 2
Fore
SplineSet
0 400 m 1
 200 400 l 5
 200 -200 l 1
 0 -200 l 1
 0 400 l 1
EndSplineSet
EndChar

StartChar: comma
Encoding: 44 44 42
Width: 200
Flags: HMW
LayerCount: 2
Fore
SplineSet
0 500 m 1
 200 500 l 5
 200 -200 l 5
 0 -200 l 1
 0 500 l 1
EndSplineSet
EndChar

StartChar: hyphen
Encoding: 45 45 43
Width: 200
Flags: HMW
LayerCount: 2
Fore
SplineSet
0 600 m 1
 200 600 l 5
 200 -200 l 1
 0 -200 l 1
 0 600 l 1
EndSplineSet
EndChar

StartChar: period
Encoding: 46 46 44
Width: 200
Flags: HMW
LayerCount: 2
Fore
SplineSet
0 700 m 5
 200 700 l 1
 200 -200 l 1
 0 -200 l 1
 0 700 l 5
EndSplineSet
EndChar
